<svg xmlns="http://www.w3.org/2000/svg" viewBox="0 0 1200 700" role="img" aria-label="Glowing brain illustration">
  <defs>
    <radialGradient id="bg" cx="50%" cy="40%" r="70%">
      <stop offset="0%" stop-color="#10253a"/>
      <stop offset="100%" stop-color="#03070b"/>
    </radialGradient>
    <linearGradient id="brain" x1="0" x2="1">
      <stop offset="0%" stop-color="#8ebfff"/>
      <stop offset="60%" stop-color="#a667e8"/>
      <stop offset="100%" stop-color="#e64a69"/>
    </linearGradient>
    <filter id="glow">
      <feGaussianBlur stdDeviation="6" result="b"/>
      <feMerge><feMergeNode in="b"/><feMergeNode in="SourceGraphic"/></feMerge>
    </filter>
  </defs>
  <rect width="1200" height="700" fill="url(#bg)"/>
  <ellipse cx="560" cy="430" rx="290" ry="235" fill="none" stroke="#6fc4ff" stroke-width="10" opacity="0.5"/>
  <g filter="url(#glow)">
    <ellipse cx="640" cy="320" rx="240" ry="180" fill="url(#brain)" opacity="0.78"/>
    <path d="M460 320c45-80 140-128 245-128 98 0 192 40 228 110" fill="none" stroke="#d4ebff" stroke-width="7" opacity="0.8"/>
    <path d="M454 350c90 40 190 53 301 42 72-8 135-27 183-53" fill="none" stroke="#f8f3ff" stroke-width="5" opacity="0.55"/>
    <path d="M500 260c30 45 43 96 39 148" fill="none" stroke="#ffd7ee" stroke-width="4" opacity="0.6"/>
    <path d="M620 215c-18 44-20 90-5 137" fill="none" stroke="#e5d8ff" stroke-width="4" opacity="0.7"/>
    <path d="M760 230c-34 40-56 86-63 135" fill="none" stroke="#ffe0f0" stroke-width="4" opacity="0.7"/>
    <circle cx="560" cy="260" r="8" fill="#ffd778"/>
    <circle cx="635" cy="300" r="9" fill="#ffe89a"/>
    <circle cx="720" cy="290" r="8" fill="#fff3b5"/>
    <circle cx="790" cy="340" r="7" fill="#ffd778"/>
    <circle cx="670" cy="385" r="9" fill="#fff0aa"/>
  </g>
</svg>
